<?xml version="1.0" encoding="UTF-8" standalone="no"?>
<!-- Created with Inkscape (http://www.inkscape.org/) -->

<svg
   xmlns:dc="http://purl.org/dc/elements/1.1/"
   xmlns:cc="http://creativecommons.org/ns#"
   xmlns:rdf="http://www.w3.org/1999/02/22-rdf-syntax-ns#"
   xmlns:svg="http://www.w3.org/2000/svg"
   xmlns="http://www.w3.org/2000/svg"
   xmlns:sodipodi="http://sodipodi.sourceforge.net/DTD/sodipodi-0.dtd"
   xmlns:inkscape="http://www.inkscape.org/namespaces/inkscape"
   width="128"
   height="128"
   viewBox="0 0 128 128"
   id="svg2"
   version="1.1"
   inkscape:version="0.91 r13725"
   sodipodi:docname="calendar.svg">
  <defs
     id="defs4" />
  <sodipodi:namedview
     id="base"
     pagecolor="#ffffff"
     bordercolor="#666666"
     borderopacity="1.0"
     inkscape:pageopacity="0.0"
     inkscape:pageshadow="2"
     inkscape:zoom="1.4"
     inkscape:cx="106.05143"
     inkscape:cy="-19.330379"
     inkscape:document-units="px"
     inkscape:current-layer="g5022"
     showgrid="false"
     units="px"
     inkscape:window-width="1366"
     inkscape:window-height="705"
     inkscape:window-x="-8"
     inkscape:window-y="-8"
     inkscape:window-maximized="1" />
  <metadata
     id="metadata7">
    <rdf:RDF>
      <cc:Work
         rdf:about="">
        <dc:format>image/svg+xml</dc:format>
        <dc:type
           rdf:resource="http://purl.org/dc/dcmitype/StillImage" />
        <dc:title></dc:title>
      </cc:Work>
    </rdf:RDF>
  </metadata>
  <g
     inkscape:label="Capa 1"
     inkscape:groupmode="layer"
     id="layer1"
     transform="translate(0,-924.36216)">
    <g
       id="g5022"
       transform="translate(-131.14286,933.9789)">
      <g
         id="g5028"
         style="fill:#ffffff"
         transform="translate(152.14286,4.2857143)">
        <path
           inkscape:connector-curvature="0"
           d="M 0,32 0,91.906 C 0,96.377 3.582,100 8,100 l 72,0 c 4.418,0 8,-3.623 8,-8.094 L 88,32 0,32 Z m 22,62 -16,0 0,-16 16,0 0,16 z m 0,-20 -16,0 0,-16 16,0 0,16 z m 0,-20 -16,0 0,-16 16,0 0,16 z m 20,40 -16,0 0,-16 16,0 0,16 z m 0,-20 -16,0 0,-16 16,0 0,16 z m 0,-20 -16,0 0,-16 16,0 0,16 z m 20,40 -16,0 0,-16 16,0 0,16 z m 0,-20 -16,0 0,-16 16,0 0,16 z m 0,-20 -16,0 0,-16 16,0 0,16 z m 20,40 -16,0 0,-16 16,0 0,16 z m 0,-20 -16,0 0,-16 16,0 0,16 z m 0,-20 -16,0 0,-16 16,0 0,16 z"
           id="path5008"
           style="fill:#ffffff" />
        <path
           inkscape:connector-curvature="0"
           d="M 80,12 67,12 67,3 C 67,1.343 65.656,0 64,0 62.343,0 61,1.343 61,3 l 0,9 -34,0 0,-9 C 27,1.343 25.656,0 24,0 22.343,0 21,1.343 21,3 l 0,9 -13,0 C 3.582,12 0,15.623 0,20.093 L 0,27 l 0,0 0,1 88,0 0,-1 0,0 0,-6.907 C 88,15.623 84.418,12 80,12 Z M 24,26 c -3.313,0 -6,-2.687 -6,-6 0,-2.219 1.209,-4.152 3,-5.19 L 21,20 c 0,1.657 1.343,3 3,3 1.656,0 3,-1.343 3,-3 l 0,-5.191 c 1.792,1.038 3,2.972 3,5.191 0,3.313 -2.686,6 -6,6 z m 40,0 c -3.313,0 -6,-2.687 -6,-6 0,-2.219 1.209,-4.152 3,-5.19 L 61,20 c 0,1.657 1.343,3 3,3 1.656,0 3,-1.343 3,-3 l 0,-5.191 c 1.792,1.038 3,2.972 3,5.191 0,3.313 -2.686,6 -6,6 z"
           id="path5010"
           style="fill:#ffffff" />
      </g>
    </g>
  </g>
</svg>
