<?xml version="1.0" encoding="UTF-8" standalone="no"?>
<!-- Created with Inkscape (http://www.inkscape.org/) -->

<svg
   xmlns:dc="http://purl.org/dc/elements/1.1/"
   xmlns:cc="http://creativecommons.org/ns#"
   xmlns:rdf="http://www.w3.org/1999/02/22-rdf-syntax-ns#"
   xmlns:svg="http://www.w3.org/2000/svg"
   xmlns="http://www.w3.org/2000/svg"
   xmlns:sodipodi="http://sodipodi.sourceforge.net/DTD/sodipodi-0.dtd"
   xmlns:inkscape="http://www.inkscape.org/namespaces/inkscape"
   width="128"
   height="128"
   viewBox="0 0 128 128"
   id="svg2"
   version="1.1"
   inkscape:version="0.91 r13725"
   sodipodi:docname="grave.svg">
  <defs
     id="defs4" />
  <sodipodi:namedview
     id="base"
     pagecolor="#ffffff"
     bordercolor="#666666"
     borderopacity="1.0"
     inkscape:pageopacity="0.0"
     inkscape:pageshadow="2"
     inkscape:zoom="1.4"
     inkscape:cx="106.05143"
     inkscape:cy="169.43738"
     inkscape:document-units="px"
     inkscape:current-layer="layer1"
     showgrid="false"
     units="px"
     inkscape:window-width="1366"
     inkscape:window-height="705"
     inkscape:window-x="-8"
     inkscape:window-y="-8"
     inkscape:window-maximized="1" />
  <metadata
     id="metadata7">
    <rdf:RDF>
      <cc:Work
         rdf:about="">
        <dc:format>image/svg+xml</dc:format>
        <dc:type
           rdf:resource="http://purl.org/dc/dcmitype/StillImage" />
        <dc:title></dc:title>
      </cc:Work>
    </rdf:RDF>
  </metadata>
  <g
     inkscape:label="Capa 1"
     inkscape:groupmode="layer"
     id="layer1"
     transform="translate(0,-924.36216)">
    <g
       id="g4166"
       transform="matrix(0.30860596,0,0,0.30860596,331.08506,913.9861)"
       style="fill:#ffffff">
      <path
         id="path4138"
         d="m -737.13015,359.98509 -12.68832,0 0,-160.50732 c 0,-62.1728 -50.11889,-112.291689 -112.92611,-112.291689 -62.1728,0 -112.9261,50.118889 -112.9261,112.291689 l 0,159.87291 -12.68833,0 c -5.07533,0 -8.88182,3.8065 -8.88182,8.88183 l 0,15.8604 c 0,5.07533 3.80649,8.88183 8.88182,8.88183 l 249.96003,0 c 5.07533,0 8.88183,-3.8065 8.88183,-8.88183 l 0,-15.8604 c 1.26883,-4.44092 -2.53767,-8.24742 -7.613,-8.24742 z M -949.02519,199.47777 c 0,-48.21564 39.33381,-86.91504 87.54945,-86.91504 48.21564,0 87.54945,39.33381 87.54945,86.91504 l 0,159.87291 -175.0989,0 0,-159.87291 z"
         inkscape:connector-curvature="0"
         style="fill:#ffffff" />
      <g
         transform="matrix(6.3441631,0,0,6.3441631,-1147.5975,-44.138095)"
         id="g4140"
         style="fill:#ffffff">
        <path
           id="path4142"
           d="m 54.6,37.1 0,2.5 c 0,0.5 -0.4,0.9 -0.9,0.9 l -6.5,0 0,14 c 0,0.5 -0.4,0.9 -0.9,0.9 l -2.5,0 c -0.5,0 -0.9,-0.4 -0.9,-0.9 l 0,-14 -6.5,0 c -0.5,0 -0.9,-0.4 -0.9,-0.9 l 0,-2.5 c 0,-0.5 0.4,-0.9 0.9,-0.9 l 6.5,0 0,-6.5 c 0,-0.5 0.4,-0.9 0.9,-0.9 l 2.5,0 c 0.5,0 0.9,0.4 0.9,0.9 l 0,6.5 6.5,0 c 0.5,0 0.9,0.4 0.9,0.9 z"
           inkscape:connector-curvature="0"
           style="fill:#ffffff" />
      </g>
    </g>
  </g>
</svg>
