<?xml version="1.0" encoding="UTF-8" standalone="no"?>
<svg
   xmlns:dc="http://purl.org/dc/elements/1.1/"
   xmlns:cc="http://creativecommons.org/ns#"
   xmlns:rdf="http://www.w3.org/1999/02/22-rdf-syntax-ns#"
   xmlns:svg="http://www.w3.org/2000/svg"
   xmlns="http://www.w3.org/2000/svg"
   xmlns:sodipodi="http://sodipodi.sourceforge.net/DTD/sodipodi-0.dtd"
   xmlns:inkscape="http://www.inkscape.org/namespaces/inkscape"
   version="1.1"
   x="0px"
   y="0px"
   viewBox="0 0 180 180"
   enable-background="new 0 0 100 100"
   xml:space="preserve"
   id="svg2"
   inkscape:version="0.91 r13725"
   sodipodi:docname="newspaper.svg"
   width="180"
   height="180"><metadata
     id="metadata22"><rdf:RDF><cc:Work
         rdf:about=""><dc:format>image/svg+xml</dc:format><dc:type
           rdf:resource="http://purl.org/dc/dcmitype/StillImage" /><dc:title></dc:title></cc:Work></rdf:RDF></metadata><defs
     id="defs20" /><sodipodi:namedview
     pagecolor="#ffffff"
     bordercolor="#666666"
     borderopacity="1"
     objecttolerance="10"
     gridtolerance="10"
     guidetolerance="10"
     inkscape:pageopacity="0"
     inkscape:pageshadow="2"
     inkscape:window-width="1366"
     inkscape:window-height="705"
     id="namedview18"
     showgrid="false"
     inkscape:zoom="1.888"
     inkscape:cx="50"
     inkscape:cy="62.5"
     inkscape:window-x="-8"
     inkscape:window-y="-8"
     inkscape:window-maximized="1"
     inkscape:current-layer="svg2" /><g
     id="g4"
     transform="matrix(1.7298251,0,0,1.7298251,2.2972994,1.3119658)"
     style="fill:#ffffff"><path
       d="m 5.585,42.018 c 0.094,0.536 0.457,0.986 0.959,1.193 l 6.607,2.725 c -2.725,1.82 -4.296,3.938 -4.679,6.312 -0.615,3.832 2.183,6.722 2.303,6.842 0.148,0.151 0.326,0.269 0.523,0.347 l 54.839,21.807 c 0.261,0.104 0.537,0.131 0.8,0.091 0.104,-0.018 0.206,-0.044 0.303,-0.081 0.384,0.014 0.796,-0.016 1.231,-0.083 6.756,-1.058 19.404,-11.624 24.595,-20.99 3.849,-6.944 3.212,-12.872 -1.79,-16.694 -0.46,-0.35 -0.917,-0.646 -1.37,-0.895 C 89.772,42.476 89.615,42.38 89.44,42.313 88.994,42.141 44.724,25.065 37.101,21.795 c -7.05,-3.024 -10.988,0.5 -11.552,1.061 L 6.081,40.57 c -0.403,0.366 -0.59,0.912 -0.496,1.448 z M 67.229,78.072 C 67.175,78.066 67.12,78.061 67.067,78.06 65.979,76.965 64.965,75.621 65.118,74.506 65.37,72.642 68.849,70.749 72.091,69.12 84.978,62.643 87.293,53.81 87.385,53.438 c 0.19,-0.769 -0.237,-1.554 -0.984,-1.812 l -7.177,-2.475 1.741,-1.776 c 0.034,-0.036 0.069,-0.074 0.101,-0.114 0.388,-0.472 3.954,-4.56 8.285,-1.253 3.701,2.828 4.018,7.078 0.94,12.632 C 84.68,68.764 71.258,78.563 67.229,78.072 Z M 16.699,47.399 61.447,65.857 c 0.598,0.247 1.286,0.106 1.737,-0.355 l 13.67,-13.936 7.063,2.437 c -1.128,2.475 -4.483,8.007 -13.199,12.388 -4.452,2.237 -8.176,4.361 -8.629,7.704 -0.105,0.771 -0.024,1.552 0.247,2.35 L 12.769,56.735 c -0.455,-0.561 -1.583,-2.173 -1.275,-4.022 0.315,-1.891 2.11,-3.726 5.192,-5.305 0.003,-0.003 0.008,-0.005 0.013,-0.009 z M 10.071,41.232 27.715,25.178 c 0.034,-0.03 0.065,-0.062 0.096,-0.094 0.093,-0.094 2.705,-2.659 8.039,-0.37 5.946,2.55 33.047,13.061 45.817,17.999 -1.294,0.721 -2.336,1.664 -3.02,2.492 L 61.668,62.515 10.071,41.232 Z"
       id="path6"
       inkscape:connector-curvature="0"
       style="fill:#ffffff" /><polygon
       points="46.815,32.832 34.157,45.64 19.257,39.467 32.467,26.946 "
       id="polygon8"
       style="fill:#ffffff" /><path
       d="m 42.321,43.977 c 0.272,-0.042 0.559,-0.015 0.833,0.095 l 19.926,7.96 c 0.813,0.326 1.21,1.25 0.885,2.064 -0.325,0.813 -1.249,1.209 -2.062,0.885 L 41.976,47.02 c -0.814,-0.325 -1.211,-1.249 -0.885,-2.063 0.216,-0.54 0.695,-0.896 1.23,-0.98 z"
       id="path10"
       inkscape:connector-curvature="0"
       style="fill:#ffffff" /><path
       d="m 47.936,37.796 c 0.216,-0.54 0.695,-0.896 1.23,-0.98 0.271,-0.042 0.559,-0.015 0.834,0.095 l 19.925,7.96 c 0.814,0.326 1.211,1.25 0.885,2.063 -0.325,0.814 -1.248,1.211 -2.062,0.886 L 48.822,39.859 C 48.008,39.533 47.611,38.61 47.936,37.796 Z"
       id="path12"
       inkscape:connector-curvature="0"
       style="fill:#ffffff" /></g></svg>