<?xml version="1.0" encoding="UTF-8" standalone="no"?>
<!-- Created with Inkscape (http://www.inkscape.org/) -->

<svg
   xmlns:dc="http://purl.org/dc/elements/1.1/"
   xmlns:cc="http://creativecommons.org/ns#"
   xmlns:rdf="http://www.w3.org/1999/02/22-rdf-syntax-ns#"
   xmlns:svg="http://www.w3.org/2000/svg"
   xmlns="http://www.w3.org/2000/svg"
   xmlns:sodipodi="http://sodipodi.sourceforge.net/DTD/sodipodi-0.dtd"
   xmlns:inkscape="http://www.inkscape.org/namespaces/inkscape"
   width="48px"
   height="48px"
   id="svg3886"
   version="1.1"
   inkscape:version="0.48.3.1 r9886"
   sodipodi:docname="splatter.svg">
  <defs
     id="defs3888" />
  <sodipodi:namedview
     id="base"
     pagecolor="#ffffff"
     bordercolor="#666666"
     borderopacity="1.0"
     inkscape:pageopacity="0.0"
     inkscape:pageshadow="2"
     inkscape:zoom="0.61871843"
     inkscape:cx="-59.377032"
     inkscape:cy="-4.6731768"
     inkscape:current-layer="g660"
     showgrid="true"
     inkscape:grid-bbox="true"
     inkscape:document-units="px"
     inkscape:window-width="1366"
     inkscape:window-height="709"
     inkscape:window-x="0"
     inkscape:window-y="27"
     inkscape:window-maximized="1" />
  <metadata
     id="metadata3891">
    <rdf:RDF>
      <cc:Work
         rdf:about="">
        <dc:format>image/svg+xml</dc:format>
        <dc:type
           rdf:resource="http://purl.org/dc/dcmitype/StillImage" />
        <dc:title></dc:title>
      </cc:Work>
    </rdf:RDF>
  </metadata>
  <g
     id="layer1"
     inkscape:label="Layer 1"
     inkscape:groupmode="layer">
    <g
       id="g660"
       transform="translate(-462.71658,-237.55193)">
      <path
         d="m 472.78904,255.48543 c -0.21019,-1.0453 -0.0703,-0.90585 -0.83794,-2.0227 -0.97618,0 -2.09181,0.14108 -2.09181,1.74338 0,0.69808 1.18597,0.83754 1.18597,1.32542 0,0.41756 -0.41877,0.4883 -0.41877,1.25509 0.0691,0.90585 1.32421,1.46447 1.32421,1.46447 1.11563,0 1.67426,-1.18516 1.74338,-1.18516 0,-0.22555 -0.017,-0.43817 -0.053,-0.63623 0.42807,-0.0954 0.81409,-0.18836 1.3226,-0.18836 0.52628,0 0.92403,0.26071 0.92403,0.65402 0,0.26556 -0.13299,0.39572 -0.13299,0.39572 l -0.13258,-0.13016 c -0.13218,0 -0.13218,0.13016 -0.13218,0.26113 0,0.26476 0.13218,0.39572 0.13218,0.65846 0,0.5267 -1.05217,1.18031 -1.83877,1.18031 0,0 0,0 -0.26072,-0.12975 -0.13299,0 -2.49805,0 -2.49805,0.65644 0,0.13259 0.26112,0.26476 0.52629,0.26476 0.65402,0 1.44507,-0.26476 1.44507,-0.39572 0.26112,0.26355 0.91999,0.13096 0.91999,0.52467 -0.13299,0.26476 -0.13299,0.39572 -0.13299,0.39572 0.26113,2.62781 7.48889,5.51916 7.48889,5.51916 1.7066,0 1.97136,-1.18476 3.15248,-1.18476 0.79105,0 1.57765,1.18476 2.10434,1.18476 0.10792,0 0.46727,-0.11763 0.96688,-0.32742 0.0404,0.10752 0.0764,0.22313 0.10186,0.35814 0.0703,0.62693 0,0.83632 1.46609,0.83632 0.20898,0 0.41756,0 0.62653,-0.0691 0,-0.0707 1.04652,1.46406 1.18476,1.46406 0.48829,0 0.83794,-0.27891 1.04651,-0.48789 0.55822,0 0.90544,0.41756 1.32583,0.41756 0.20897,0 0.48829,-0.0695 0.7672,-0.13865 l 0.7672,-0.0703 c 0,-0.20898 0.0683,-0.27931 0.20897,-0.27931 0.34763,0 1.11483,0.20898 1.67345,0.27931 0,-0.20898 0.27891,-0.0707 0.4883,-0.20898 0.2789,-0.0707 0.62855,-0.97618 0.90544,-0.97618 0.0707,0 0.14066,0.0691 0.2114,0.0691 0.0679,0 0.48789,-0.62774 0.69687,-0.62774 2.302,0 1.39373,-1.53481 2.23167,-2.23167 1.67304,-1.32543 1.81371,-2.16255 1.81371,-2.7899 0,-0.34843 -0.0703,-0.83632 -0.14067,-0.83632 0,0 0,0.0695 -0.0703,0.0695 -0.13864,0 -0.13864,-0.69727 -0.13864,-0.69727 0,-0.14754 0.0295,-0.2975 0.076,-0.44504 0.12773,0.0206 0.25748,0.0311 0.38562,0.0311 0.20898,-0.13905 0.69808,-0.34762 0.69808,-0.41755 h -0.0703 c 0.34844,0 0.41877,-0.27931 0.41877,-0.55903 0,-1.0453 -0.41877,-1.60271 -1.32582,-1.60271 -0.0243,0 -0.0489,0.008 -0.0732,0.01 -0.13298,-0.0821 -0.26678,-0.13824 -0.38764,-0.15522 0,-0.65402 0.20211,-0.95274 0.26153,-1.28743 0.24657,0.19241 0.55579,0.34844 0.70172,0.4216 0,-0.26314 0.13217,-0.26314 0.39289,-0.26314 0,-0.12976 0.13299,-0.26072 0.13299,-0.39371 0,-0.13177 -0.26476,-0.65644 -0.91919,-0.65644 -0.1633,0 -0.30275,0.0465 -0.41189,0.10913 -0.32741,-0.62006 -1.20456,-0.31569 -1.20456,-1.90506 -0.27891,0.13986 -0.5558,0.34843 -0.83551,0.34843 -0.55822,0 -0.48789,-0.41755 -0.48789,-0.76679 v -0.90585 l -0.0703,-0.0703 c -0.0699,0 -0.14067,0.0703 -0.20898,0.0703 -0.0703,0 -0.14067,-0.0703 -0.14067,-0.13986 -0.62653,0.0695 -0.48789,0.83632 -1.60271,0.83632 -0.90787,0 -0.41998,-0.20898 -0.97618,-1.5344 -1.46407,0.83754 -0.55863,0.97618 -1.60514,0.97618 -0.48789,0 -1.25509,-0.97618 -1.25509,-0.97618 -0.48829,0 -0.97618,0.41877 -1.18475,0.41877 -0.14107,0 -0.27931,-0.0691 -0.41796,-0.0691 0,0 -0.48829,0.0691 -0.48829,0.34803 0,0 0,0 0.0679,0 -0.27931,0.20898 -0.27931,1.18637 -0.7672,1.18637 -0.73244,0 -1.22962,0.34116 -1.58816,0.64593 -0.71829,-1.19809 -1.2086,-2.11889 -1.67305,-2.11889 -1.31289,0 -1.04813,-2.23288 -1.57401,-2.23288 v 0.13096 c 0,-0.39572 -0.78741,-2.89135 -1.18475,-2.89135 v 0.13016 c -0.65443,-0.3933 -0.12814,-1.83877 -1.31289,-1.83877 -0.65443,0 -0.91919,0.78902 -0.91919,1.3145 0,0.52427 0.13218,1.18314 0.13218,1.83959 0,0.65644 -0.3929,1.31491 -1.05217,1.31491 -0.26072,0 -0.65806,-0.26436 -0.91919,-0.26436 -0.13258,0 -0.13258,0 -0.13258,0.13177 0,0.26355 0.13258,0.52629 0.13258,0.78701 0,0.26557 -0.13258,0.39573 -0.52629,0.52669 -0.65401,0 -0.39289,-0.65685 -0.91958,-0.65685 -0.13259,0 -0.39371,0.26274 -0.39371,0.39573 0,0.13016 0.26112,0.3929 0.26112,0.52588 0,0.39371 -0.65402,0.52346 -0.65402,0.65443 -0.91999,0 -1.44587,-1.05015 -2.36506,-1.05015 0.3929,0.78902 1.3133,1.05015 1.3133,2.10192 0,1.57199 -2.7333,3.79072 -2.75635,4.19817 -0.50365,-0.0178 -1.10552,-0.12611 -1.70902,-0.12611 -0.006,0 -0.0133,4e-4 -0.0198,4e-4 -0.18594,-0.41877 -0.52912,-0.71344 -1.13383,-0.79388 0.14027,-0.34681 0.27972,-0.55741 0.41958,-0.69686 z"
         id="path672"
         inkscape:connector-curvature="0"
         style="fill:#e1001a" />
      <path
         d="m 472.90936,278.21515 c 2.275,0 4.222,1.623 6.497,1.623 2.603,0 6.825,-2.602 7.48,-5.851 0.319,-0.652 0.974,-1.624 0.974,-2.604 0,-1.456 -0.546,-3.049 -1.435,-4.475 0.441,-0.177 0.824,-0.312 1.09,-0.357 0,-0.675 -0.226,-0.913 -0.688,-0.997 0.463,-1.077 0.775,-2.113 1.573,-2.478 -0.348,-2.066 -1.208,-3.622 -2.072,-4.655 -1.207,-1.207 -2.415,-1.382 -3.796,-1.382 -2.067,0 -6.038,1.037 -6.038,3.623 v 3.082 c -0.917,0.354 -1.84,0.688 -2.611,0.814 0.317,0 0.646,0 0.646,0.327 0,0.646 -3.894,1.948 -3.894,7.477 0,0.65 2.591,2.925 2.591,4.227 10e-4,0.323 -0.317,0.974 -0.317,1.626 z"
         id="path680"
         inkscape:connector-curvature="0"
         style="fill:#e1001a" />
      <path
         d="m 501.78493,270.68772 c -0.23768,-0.12005 -0.83187,-0.23808 -0.83187,-0.59622 0,-1.30561 -0.95193,-2.25754 -0.95193,-3.44512 0,-0.12005 0.23768,-0.23808 0.23768,-0.35814 0,-0.11803 -0.23768,-0.23808 -0.35571,-0.23808 0.23606,-0.35611 0.5942,-0.35611 0.5942,-0.47414 0,-0.71385 -1.30764,0 -1.30764,-1.06956 0,-0.71424 1.30764,-0.47616 1.30764,-1.06955 0,-0.12005 0,-0.12005 -0.23809,-0.12005 l -1.54531,0.71384 c -0.23849,0.11803 -0.47616,0.23809 -0.59419,0.23809 -0.23768,0 -0.23768,-0.12006 -0.23768,-0.12006 0,-0.11803 0,-0.23606 0.12005,-0.35611 -0.12005,0.12005 -0.23808,0.23808 -0.35814,0.23808 -0.47576,0 -0.47576,-0.83187 -0.47576,-1.30763 0,-0.71425 0.12006,-1.42607 0.23809,-2.25795 0,-0.59419 -0.11803,-1.1896 -0.71223,-1.1896 -0.95152,0 -0.95152,1.06996 -1.7838,1.06996 -0.11803,0 -0.35571,-0.11804 -0.35571,-0.35612 0,-0.35611 0.47576,-0.35611 0.47576,-0.83228 0,-0.35611 -0.35773,-0.71384 -0.47576,-0.95152 -0.83228,0 -0.71384,3.5676 -2.49603,3.5676 -0.18594,0 -0.35328,-0.0234 -0.5081,-0.0622 -0.095,-0.0344 -0.17098,-0.0707 -0.24252,-0.0776 -0.20818,-0.0857 -0.38643,-0.20736 -0.54246,-0.35247 0.0372,-0.0788 0.0825,-0.15158 0.13258,-0.2207 0.0194,0.32377 0.14916,0.43695 0.38886,0.43695 0.13298,0 0.52628,-0.13056 0.52628,-0.52467 0,-0.26274 -0.13298,-0.39572 -0.3937,-0.39572 -0.0517,0 -0.12329,0.0214 -0.1912,0.0614 -0.002,-0.47051 -0.036,-1.01862 -0.55781,-1.01862 -0.2781,0.04 -0.53357,0.14713 -0.79226,0.24535 -0.12491,-0.27527 -0.24415,-0.54366 -0.37552,-0.77771 0.28982,-0.65887 0.74901,-1.07278 0.74901,-1.76884 0,-0.62775 -0.69686,-1.25509 -0.69686,-1.67426 0,-0.13864 0.0703,-0.27931 0.0703,-0.48829 -0.62775,-1.25468 -3.0688,-1.95195 -3.55709,-1.95195 -0.0691,0 -0.13986,0.0703 -0.13986,0.0703 -0.20898,0.20898 -0.97618,0.0679 -1.25509,0.20898 v 0.0695 c 0,0.0691 -0.0691,0.20979 -0.13945,0.20979 -0.0691,0 -0.13946,-0.0699 -0.20898,-0.0699 -1.24579,0 -1.59665,0.38967 -1.74459,0.79307 -0.0315,-0.0275 -0.0635,-0.0513 -0.0946,-0.0833 -0.52548,0 -0.13258,0.39411 -0.65847,0.39411 -0.26112,0 -0.52628,-0.13015 -0.65442,-0.13015 -1.18475,0 -1.44588,1.1803 -1.44588,2.49562 0,0.63583 0.75265,1.33391 1.56512,1.70376 -0.11358,1.00205 -0.20332,1.88931 -1.22113,2.08009 -0.20898,0.0691 -1.95236,0.27891 -1.95236,0.34844 v 1.18596 c -0.62774,0.34723 -1.04651,0.62694 -1.32582,1.18516 0.7672,0 0.97739,1.5344 0.97739,2.3016 0,0.7672 -0.69808,1.74298 -0.69808,2.51099 0,1.95195 1.95357,1.53318 2.23127,2.64922 1.25549,0 0.34964,3.13833 1.67425,3.13833 0.41877,0 0.97618,-0.13986 1.25509,-0.13986 0.97618,0 1.67305,0.69686 2.65044,0.69686 0.41755,0 0.34843,-0.20898 0.41755,-0.20898 0.0703,0 0.13986,0.0707 0.21019,0.0707 0.10914,0 0.44707,-0.24697 0.91313,-0.48304 0.36864,0.12652 0.70778,0.17139 0.75871,0.17139 3.92412,0 2.13991,5.46903 5.46983,5.46903 2.25754,0 1.90184,-2.61567 3.20947,-3.5672 0.71182,0.23809 1.5437,0.59582 2.37557,0.59582 0.35773,0 0.71425,-0.47576 0.71425,-1.30764 -0.11803,-0.23808 -0.35611,-1.66375 -0.35611,-2.37759 0,-0.0748 0.0226,-0.15724 0.0542,-0.24334 0.16047,0.0445 0.31691,0.0687 0.45838,0.0687 0.41917,0 0.69808,-0.27891 0.69808,-0.97739 0,-0.1532 -0.0247,-0.26759 -0.061,-0.3638 0.67908,-0.54165 1.51015,-0.98143 2.05988,-0.98143 z m -10.7699,-9.78968 c -0.005,0.0242 -0.009,0.0477 -0.009,0.074 h -0.0622 c 0.0222,-0.0263 0.0469,-0.0501 0.0715,-0.074 z"
         id="path700"
         inkscape:connector-curvature="0"
         style="fill:#e1001a" />
      <g
         id="g4277"
         transform="matrix(0.44119996,0,0,0.40729035,324.20752,165.46107)">
        <path
           style="fill:#e1001a"
           inkscape:connector-curvature="0"
           id="path722"
           d="m 344.027,220.486 c 0.975,0 1.293,-0.328 1.293,-0.651 0,-0.321 -0.646,-0.979 -1.293,-1.295 -0.328,0.317 -0.654,0.974 -0.654,1.619 0,0 0,0.327 0.654,0.327 z" />
        <path
           style="fill:#e1001a"
           inkscape:connector-curvature="0"
           id="path738"
           d="m 365.803,277.041 c 0,3.576 1.618,3.576 2.275,5.528 1.946,0 6.496,-0.322 6.496,-3.253 0,-0.324 -0.317,-0.646 -0.317,-0.975 0,-0.321 0,-1.301 0.317,-1.623 -1.302,-1.297 -2.593,-2.926 -4.55,-2.926 -1.945,0.001 -3.894,1.63 -4.221,3.249 z" />
        <path
           style="fill:#e1001a"
           inkscape:connector-curvature="0"
           id="path742"
           d="m 360.597,247.79 c 0.974,0 1.303,-0.321 1.303,-0.978 0,-0.646 -0.645,-1.296 -1.619,-1.296 -0.658,0.322 -0.983,0.65 -0.983,1.296 -10e-4,0.328 0.325,0.978 1.299,0.978 z" />
        <path
           style="fill:#e1001a"
           inkscape:connector-curvature="0"
           id="path746"
           d="m 368.912,224.925 c -0.174,-0.688 -0.342,-1.033 -0.691,-1.033 -0.857,0 -3.278,2.241 -3.278,3.967 2.588,-0.345 3.103,-2.586 3.969,-2.934 z" />
        <path
           style="fill:#e1001a"
           inkscape:connector-curvature="0"
           id="path788"
           d="m 324.574,238.212 c 0,0.036 0.018,0.07 0.028,0.105 0.083,-0.049 0.146,-0.105 0.146,-0.105 -0.174,0 -0.174,0 -0.174,0 z" />
        <path
           style="fill:#e1001a"
           inkscape:connector-curvature="0"
           id="path810"
           d="m 379.78,214.575 c 0,1.208 -1.034,1.033 -1.209,2.415 1.898,0 4.663,-2.24 5.179,-4.313 -0.342,-0.342 -0.691,-0.342 -1.207,-0.342 -0.176,-0.001 -0.866,1.377 -2.763,2.24 z" />
        <path
           style="fill:#e1001a"
           inkscape:connector-curvature="0"
           id="path812"
           d="m 406.863,185.765 c -2.756,0 -3.102,4.83 -6.037,5.173 -0.859,0 -5.004,5.352 -6.381,5.869 -0.865,0.517 -1.207,1.207 -1.207,1.898 0,0.342 0.17,0.517 0.518,0.517 2.59,0 6.379,-4.659 6.211,-4.83 1.551,0 2.584,-3.281 3.965,-3.281 -0.17,0 3.797,-2.76 3.797,-4.138 -10e-4,-0.692 -0.175,-1.208 -0.866,-1.208 z" />
      </g>
    </g>
  </g>
</svg>
